:SAMPLES-PER-SECOND 30
:FULLY-SPECIFIED
:DEGREES
47
root  66.1542 38.8039 -17.3634 -4.21734 -70.2459 4.69938
RightUpLeg  7.19058 -12.7973 -2.63913
RightLeg  15.8771 -17.2468 1.48007
RightFoot  -21.0957 -0.0812252 0.724491
RightToes  1.16414e-010 0 -3.6325e-017
Spine  6.58987 1.61898 4.47263
Spine1  11.7319 3.72705 -5.58198
HEad  0.250106 28.4658 -9.98639
LeftShoulder1  8.39394 -12.4106 -45.996
LeftArm  -47.6337 -1.05541 -9.70663
LeftForeArm  -13.0653 -46.4162 -12.632
LeftHand  -0.244104 0.0205437 5.32207
RightShoulder  4.88621 8.13475 36.0013
RightArm  -4.42678 -3.60091 42.3326
RightForeArm  -3.57704 31.9173 7.22599
RightHand  -1.35085 3.60302 -17.5683
LeftUpLeg  -25.523 13.6 -7.84569
LeftLeg  27.5376 6.86241 4.23128
LeftFoot  -4.67184 0.281094 -4.35015
LeftToes  -6.45774e-011 3.08606e-011 -5.1752e-012
48
root  65.3606 38.7526 -17.3182 -5.73658 -70.5403 7.28254
RightUpLeg  7.97364 -12.1594 -3.05746
RightLeg  14.6935 -17.5723 1.62736
RightFoot  -21.6853 -0.0776773 0.758282
RightToes  1.16414e-010 0 -3.6325e-017
Spine  6.74643 1.97063 4.70225
Spine1  11.6045 4.46511 -7.05182
HEad  -0.671305 28.9328 -12.826
LeftShoulder1  8.55626 -12.4085 -46.9151
LeftArm  -47.1805 -0.830261 -11.0773
LeftForeArm  -12.9717 -48.1885 -13.4293
LeftHand  -0.244104 0.0205437 5.32207
RightShoulder  5.01939 8.40231 36.1714
RightArm  -2.90604 -3.91458 43.0892
RightForeArm  -2.41832 32.7769 7.39168
RightHand  -1.34288 3.62721 -17.4225
LeftUpLeg  -26.1001 15.3517 -11.0537
LeftLeg  21.0659 5.37441 2.61628
LeftFoot  -4.40574 0.28846 -4.31773
LeftToes  -6.45774e-011 3.08606e-011 -5.1752e-012
49
root  64.4822 38.5985 -17.2516 -7.00503 -70.4047 9.09676
RightUpLeg  9.2352 -12.2411 -3.50819
RightLeg  14.2052 -17.4962 1.62029
RightFoot  -22.6595 0.00109443 1.55859
RightToes  1.16414e-010 0 -3.6325e-017
Spine  7.56895 2.04058 4.88634
Spine1  11.1303 4.92589 -8.50565
HEad  -2.34673 29.138 -15.3524
LeftShoulder1  8.80075 -12.6016 -47.6931
LeftArm  -46.7512 -0.0669513 -12.247
LeftForeArm  -12.6734 -49.7478 -14.1695
LeftHand  -0.244104 0.0205437 5.32207
RightShoulder  5.31574 8.96116 36.6454
RightArm  -1.5193 -4.37897 43.6532
RightForeArm  -1.56874 33.1411 7.44317
RightHand  -1.33131 3.61957 -17.2909
LeftUpLeg  -26.4816 13.8799 -12.8264
LeftLeg  17.4387 3.35932 1.48908
LeftFoot  -4.13115 0.331443 -4.8684
LeftToes  -6.45774e-011 3.08606e-011 -5.1752e-012
50
root  63.4815 38.332 -17.1675 -8.04753 -69.9603 10.3864
RightUpLeg  10.4772 -13.912 -4.23859
RightLeg  15.1929 -16.0374 1.19309
RightFoot  -23.8724 0.0909702 2.30899
RightToes  1.16414e-010 0 -3.6325e-017
Spine  8.48814 2.03179 4.67118
Spine1  10.342 5.19121 -9.75624
HEad  -4.09437 29.2078 -16.8568
LeftShoulder1  9.04253 -12.9139 -48.0786
LeftArm  -46.2919 0.966339 -13.3315
LeftForeArm  -13.1539 -50.5286 -14.6027
LeftHand  -0.244104 0.0205437 5.32207
RightShoulder  5.67141 9.61378 37.2202
RightArm  -0.0114529 -5.11897 44.2034
RightForeArm  -1.54784 32.9263 7.38412
RightHand  -1.32354 3.63397 -17.1692
LeftUpLeg  -27.1351 9.68712 -13.2186
LeftLeg  18.3421 2.73318 1.33034
LeftFoot  -4.08194 0.285115 -4.11608
LeftToes  -6.45774e-011 3.08606e-011 -5.1752e-012
51
root  62.3425 37.9772 -17.0509 -9.23071 -70.0046 11.6069
RightUpLeg  11.4527 -18.8742 -5.85677
RightLeg  18.2028 -10.4395 0.0160569
RightFoot  -25.3441 0.247675 3.37709
RightToes  1.16414e-010 0 -3.6325e-017
Spine  9.17063 2.28364 3.95441
Spine1  9.49827 5.65492 -10.8237
HEad  -5.24743 29.455 -17.0369
LeftShoulder1  9.17661 -13.1369 -48.1389
LeftArm  -45.9252 1.90574 -14.0932
LeftForeArm  -14.8771 -50.1072 -14.4975
LeftHand  -0.244104 0.0205437 5.32207
RightShoulder  5.93427 10.1085 37.568
RightArm  1.90038 -6.14361 44.8133
RightForeArm  -1.81981 32.2445 7.21692
RightHand  -1.25918 3.4889 -16.6068
LeftUpLeg  -27.9344 6.38744 -13.2838
LeftLeg  22.6801 2.57642 1.50689
LeftFoot  -4.14258 0.104695 -1.27816
LeftToes  -6.45774e-011 3.08606e-011 -5.1752e-012
52
root  61.1051 37.586 -16.8846 -10.801 -70.7849 12.8066
RightUpLeg  11.7744 -24.299 -7.9348
RightLeg  23.715 -2.91746 -1.57269
RightFoot  -26.1126 0.7002 6.77162
RightToes  1.16414e-010 0 -3.6325e-017
Spine  9.9193 2.7291 2.71158
Spine1  8.59736 6.22881 -11.552
HEad  -5.91382 30.1697 -16.2419
LeftShoulder1  9.16559 -13.1513 -48.038
LeftArm  -45.972 2.70601 -14.243
LeftForeArm  -17.219 -48.6993 -13.9354
LeftHand  -0.244104 0.0205437 5.32207
RightShoulder  6.05909 10.3253 37.7784
RightArm  3.98333 -7.27579 45.1098
RightForeArm  -1.23404 31.1939 6.91035
RightHand  -1.04846 2.77024 -15.0396
LeftUpLeg  -28.1625 4.95026 -13.302
LeftLeg  27.9653 3.29725 2.25166
LeftFoot  -4.91858 -0.123587 2.80961
LeftToes  -6.45774e-011 3.08606e-011 -5.1752e-012
53
root  59.8346 37.2323 -16.6664 -12.5105 -71.5571 13.6629
RightUpLeg  9.97297 -21.6618 -8.47203
RightLeg  32.7885 -2.96128 -2.34712
RightFoot  -23.3024 1.08808 12.1242
RightToes  1.16414e-010 0 -3.6325e-017
Spine  10.9451 2.95461 0.854588
Spine1  7.52996 6.27761 -11.3847
HEad  -6.59608 31.512 -15.2676
LeftShoulder1  9.06108 -13.022 -47.859
LeftArm  -46.64 3.45503 -13.7955
LeftForeArm  -19.4814 -47.0994 -13.3099
LeftHand  -0.244104 0.0205437 5.32207
RightShoulder  6.10094 10.3171 38.0951
RightArm  5.59208 -8.27734 44.6359
RightForeArm  0.108938 29.7486 6.472
RightHand  -0.806386 1.8416 -13.1082
LeftUpLeg  -27.605 3.78269 -13.0996
LeftLeg  32.8919 5.57529 4.23558
LeftFoot  -7.23264 -0.184228 6.38877
LeftToes  -6.45774e-011 3.08606e-011 -5.1752e-012
